<svg id="Layer_1" data-name="Layer 1" xmlns="http://www.w3.org/2000/svg" viewBox="0 0 300 117.4"><defs><style>.cls-1{fill:#333333;}</style></defs><title>USCENSUS_IDENTITY_CMYK_New Blue_large_R</title><path class="cls-1" d="M256.8,151.4h7.7c2.4,0,3.7.4,4.9,1.4a4.7,4.7,0,0,1,.3,7,3.7,3.7,0,0,1-1.8,1.1c2.7.8,4,2.4,4,5a5.4,5.4,0,0,1-5.3,5.6h-9.8Zm4,3.4v4.7h3.3a3.2,3.2,0,0,0,1.7-.3,2.6,2.6,0,0,0,1.1-2.1,2.4,2.4,0,0,0-1.2-2,4.6,4.6,0,0,0-1.7-.3Zm.1,8v5.5h3.5a3,3,0,0,0,1.8-.5,2.8,2.8,0,0,0,1.1-2.3,2.5,2.5,0,0,0-1.5-2.5,3.2,3.2,0,0,0-1.6-.2Z" transform="translate(-55.3 -54.7)"/><path class="cls-1" d="M292.6,157.1v1.4a5.2,5.2,0,0,1,2-1.7,2.5,2.5,0,0,1,1.3-.3,3.9,3.9,0,0,1,1.4.3l-.8,3.3a2.3,2.3,0,0,0-1.1-.3,3,3,0,0,0-2.4,1.3v10.5h-3.9V157.1Z" transform="translate(-55.3 -54.7)"/><path class="cls-1" d="M309.1,167.6l1.5,2.3A8.9,8.9,0,0,1,305,172c-4.3,0-7.1-3-7.1-7.7a8.4,8.4,0,0,1,1.9-5.9,6,6,0,0,1,4.7-2,6.1,6.1,0,0,1,4.3,1.6c1.3,1.4,1.9,3.4,1.9,6.5v.9h-8.6c0,2.3,1.2,3.6,3.2,3.6A5.9,5.9,0,0,0,309.1,167.6Zm-6.9-5h4.5v-.2a3.7,3.7,0,0,0-.5-2.3,1.9,1.9,0,0,0-1.7-.8c-1.5,0-2.3,1.1-2.3,3.2Z" transform="translate(-55.3 -54.7)"/><path class="cls-1" d="M321.6,171.6v-1.1l-.9.8a5,5,0,0,1-2.9.8c-3.4,0-5.1-1.7-5.1-4.6s2.4-5.1,7.1-5.1h.9v-.6c0-1.7-.4-2.2-1.8-2.2a8.2,8.2,0,0,0-4.3,1.7l-1.6-2.8a9,9,0,0,1,2.4-1.2,10,10,0,0,1,4-.9c2.5,0,4.2.9,4.8,2.6a7.5,7.5,0,0,1,.3,2.7v9.9Zm-1-6.5h-.2c-2.7,0-3.6.5-3.6,2.2a1.8,1.8,0,0,0,1.7,2,2.8,2.8,0,0,0,2-1Z" transform="translate(-55.3 -54.7)"/><path class="cls-1" d="M336,171.6v-1.1a5.8,5.8,0,0,1-3.9,1.4c-2.1,0-3.9-.9-4.4-2.4a7,7,0,0,1-.3-2.9v-9.5h3.8v8.8a5.9,5.9,0,0,0,.3,2.4,1.6,1.6,0,0,0,1.4.7,3,3,0,0,0,2.4-1.4V157.1H339v14.5Z" transform="translate(-55.3 -54.7)"/><path class="cls-1" d="M100.5,89a20,20,0,0,0-11.8-3.8c-4.9,0-9.8,2.2-12.5,5.9s-4.1,9.7-4.1,17.7.8,14.6,3.1,18.4,7.8,7.7,14.2,7.7a19.8,19.8,0,0,0,11.1-3.4l1.5-1,5.9,9.3c-5.6,4-11.6,5.8-19.6,5.8-10.2,0-18-3.1-24.1-9.5s-8.9-14.5-8.9-24.6c0-8.6,1.6-15.5,5-21.4,5.7-10,16.3-15.9,28.2-15.9,6.8,0,13.6,1.8,17.7,4.7Z" transform="translate(-55.3 -54.7)"/><path class="cls-1" d="M148.3,130.4l5.1,7.8a29,29,0,0,1-18.9,7c-14.4,0-23.7-10.2-23.7-26,0-9,1.9-15,6.3-19.9s9.1-6.7,15.7-6.7,11.3,1.9,14.5,5.3,6.7,11.4,6.7,21.9v3H125v.4c0,7.8,3.8,12.2,10.6,12.2C140.1,135.4,144.3,133.7,148.3,130.4Zm-23.1-17.2h15.2v-.6c0-3.7-.4-5.6-1.6-7.5a6.5,6.5,0,0,0-5.8-2.9c-5,0-7.8,3.9-7.8,10.8Z" transform="translate(-55.3 -54.7)"/><path class="cls-1" d="M172,93l1.3,5.6a46.1,46.1,0,0,1,5.7-3.8,22,22,0,0,1,9-2.1c5.6,0,10.5,2.9,12.1,7.2a20.1,20.1,0,0,1,1,7.2v36.6h-13V111.1c0-5.7-.9-7.4-4.4-7.4s-6,1.8-9.1,4.5v35.5H161.5V93Z" transform="translate(-55.3 -54.7)"/><path class="cls-1" d="M173.3,93v5.6a46.1,46.1,0,0,1,5.7-3.8,22,22,0,0,1,9-2.1c5.6,0,10.5,2.9,12.1,7.2a20.1,20.1,0,0,1,1,7.2v36.6h-13V111.1c0-5.7-.9-7.4-4.4-7.4s-6,1.8-9.1,4.5v35.5H161.5V93Z" transform="translate(-55.3 -54.7)"/><path class="cls-1" d="M242,105.7c-5-2.5-8.7-3.6-12.4-3.6s-6.3,1.9-6.3,4.9,1.6,3.9,6.2,5.1l6.1,1.5c6.2,1.6,8.2,3.5,10,5.7a13.7,13.7,0,0,1,2.7,8.5c0,10.4-8.6,17.4-21.4,17.4-6,0-12.6-1.8-19.7-5.4l4.1-9.9c4,2.4,11,5.7,16.7,5.7,3.7,0,6.6-2.5,6.6-5.7s-2.4-5.2-7.7-6.2l-5.9-1.1a17.7,17.7,0,0,1-9.2-5.1c-1.8-2.1-2.8-5.7-2.8-9,0-9.7,7.7-16.3,19.3-16.3a37.3,37.3,0,0,1,17.2,4.3Z" transform="translate(-55.3 -54.7)"/><path class="cls-1" d="M283.2,143.7v-5.5a56.4,56.4,0,0,1-5.8,3.7,20.2,20.2,0,0,1-9,2.1c-5.6,0-10.5-2.9-12-7.2a19.8,19.8,0,0,1-1-7.1V93h12.9v32.6c0,5.7,1,7.4,4.4,7.4s6.1-1.8,9.1-4.5V93h13.1v50.7Z" transform="translate(-55.3 -54.7)"/><path class="cls-1" d="M136.1,60V73.2c0,7.3-3.5,11.2-9.9,11.2s-9.8-4.1-9.8-11.3V60h-3V56.6h10V60h-2.9V73.5c0,4.8,1.9,7.3,5.7,7.3s5.9-2.5,5.9-7V60h-3V56.6h10V60h-3" transform="translate(-55.3 -54.7)"/><path class="cls-1" d="M152.1,84V80.7h2.4V71.4c0-4-1.3-5.1-3.4-5.1s-3.3,1-4.5,2.6V80.7h2.5V84h-8.9V80.7h2.4v-14h-2.4V63.4h6.4v2.1a7.2,7.2,0,0,1,5.5-2.5c4.2,0,6.4,2.3,6.4,8.1v9.6H161V84h-8.9" transform="translate(-55.3 -54.7)"/><path class="cls-1" d="M167.4,60a2.7,2.7,0,1,1,2.6-2.6,2.6,2.6,0,0,1-2.6,2.6m-4.1,24V80.7h2.5v-14h-2.5V63.4h6.5V80.7h2.6V84Z" transform="translate(-55.3 -54.7)"/><path class="cls-1" d="M185,83.5" transform="translate(-55.3 -54.7)"/><path class="cls-1" d="M185,83.5a8.2,8.2,0,0,1-3.8.9c-2.7,0-4.4-1.7-4.4-5.4V66.7H174V63.4h2.8V57.5l4-2.1v8h4.6v3.3h-4.6V78.6c0,1.9.5,2.5,1.9,2.5l1.3-.2Z" transform="translate(-55.3 -54.7)"/><path class="cls-1" d="M204.1,75.1H191.4c.3,3.8,1.9,5.9,5.1,5.9a8.5,8.5,0,0,0,5.5-2l1.7,2.7a10.7,10.7,0,0,1-7.5,2.7c-5,0-8.8-3.9-8.8-10.7S190.9,63,196,63s8.2,4.7,8.2,10.3c0,.7-.1,1.4-.1,1.8m-8.4-8.8c-2.6,0-4,2-4.3,5.6h8.8c-.3-3-1.3-5.6-4.5-5.6" transform="translate(-55.3 -54.7)"/><path class="cls-1" d="M219.8,84V81.8a6.2,6.2,0,0,1-5.1,2.6c-4.4,0-7.5-3.2-7.5-11S210.6,63,214.5,63a6.7,6.7,0,0,1,5.3,2.4V58.2h-2.4V54.9h6.4V80.7H226V84h-6.2m0-15a5.9,5.9,0,0,0-4.5-2.7c-2.7,0-4.1,2.4-4.1,6.9s1.6,7.9,4.3,7.9,2.8-.8,4.3-2.6Z" transform="translate(-55.3 -54.7)"/><path class="cls-1" d="M248.3,84.4a7.3,7.3,0,0,1-5.9-2.6V84h-3.6V75.6h3.4c.9,3.4,2.7,5.3,6,5.3s4.7-1.4,4.7-4.1-.8-3.6-5.8-5-8.1-3.3-8.1-8.2,3.2-7.5,7.9-7.5c3.1,0,4.9,1.3,5.7,2.7V56.6h3.6v8.3h-3.4c-.5-3.2-2.3-5.3-5.7-5.3s-3.9,1.5-3.9,3.7,1.5,3.5,5.5,4.7c5.5,1.5,8.3,3.4,8.3,8.3s-3.6,8.1-8.7,8.1" transform="translate(-55.3 -54.7)"/><path class="cls-1" d="M285,84V81.8a7,7,0,0,1-5.6,2.6c-3.6,0-6.6-1.8-6.6-6.8s3.3-6.8,7.6-6.8a9.8,9.8,0,0,1,4.6,1V69.9c0-2.3-1.4-3.5-3.8-3.5a9.7,9.7,0,0,0-5.1,1.3l-1.5-2.9a12.4,12.4,0,0,1,6.9-1.8c4.3,0,7.4,2.2,7.4,6.9V80.7h2.2V84H285m0-9.1a9.7,9.7,0,0,0-4.6-.9c-2.2,0-3.8,1.3-3.8,3.5s1.2,3.6,3.5,3.6a6.4,6.4,0,0,0,4.9-2.6Z" transform="translate(-55.3 -54.7)"/><path class="cls-1" d="M322.3,75.1H309.5c.4,3.8,1.9,5.9,5.1,5.9a8.7,8.7,0,0,0,5.6-2l1.7,2.7a10.7,10.7,0,0,1-7.5,2.7c-5,0-8.8-3.9-8.8-10.7S309.1,63,314.1,63s8.3,4.7,8.3,10.3c0,.7-.1,1.4-.1,1.8m-8.4-8.8c-2.7,0-4,2-4.3,5.6h8.7c-.2-3-1.3-5.6-4.4-5.6" transform="translate(-55.3 -54.7)"/><path class="cls-1" d="M333.7,84.3a5.4,5.4,0,0,1-4.7-2V84h-3.1V77.6h2.7c1.3,2.3,2.5,3.5,4.9,3.5a2.3,2.3,0,0,0,2.6-2.4c0-1.5-.7-2.4-3.6-3.2-5-1.5-6.7-3-6.7-6.7s2.2-5.7,6.3-5.7a5.4,5.4,0,0,1,4.3,1.6V63.4h3.1v6.4h-2.8c-.9-2.3-2.1-3.6-4.4-3.6s-2.5.9-2.5,2.3.5,2.2,3.6,3.1c4.8,1.5,6.7,2.9,6.7,6.8s-2.5,5.9-6.4,5.9" transform="translate(-55.3 -54.7)"/><path class="cls-1" d="M282.9,171.6v-1.1a5.9,5.9,0,0,1-4,1.4c-2,0-3.8-.9-4.3-2.4a7,7,0,0,1-.3-2.9v-9.5h3.8v8.8a5.9,5.9,0,0,0,.3,2.4,1.6,1.6,0,0,0,1.4.7,3,3,0,0,0,2.4-1.4V157.1h3.7v14.5Z" transform="translate(-55.3 -54.7)"/><path class="cls-1" d="M335.9,105.7c-5-2.5-8.6-3.6-12.3-3.6s-6.4,1.9-6.4,4.9,1.7,3.9,6.3,5.1l6.1,1.5c6.1,1.6,8.2,3.5,10,5.7a13.7,13.7,0,0,1,2.7,8.5c0,10.4-8.6,17.4-21.4,17.4-6,0-12.6-1.8-19.7-5.4l4.1-9.9c4,2.4,11,5.7,16.6,5.7,3.8,0,6.7-2.5,6.7-5.7s-2.5-5.2-7.7-6.2l-5.9-1.1a17.7,17.7,0,0,1-9.2-5.1,14.7,14.7,0,0,1-2.9-9c0-9.7,7.8-16.3,19.4-16.3,7.6,0,12.7,2.2,17.2,4.3Z" transform="translate(-55.3 -54.7)"/><path class="cls-1" d="M62.9,158.1H241.3a6.8,6.8,0,1,1,0,13.5H62.9a6.8,6.8,0,0,1,0-13.5Z" transform="translate(-55.3 -54.7)"/><path class="cls-1" d="M270.3,83.5a8.2,8.2,0,0,1-3.8.9c-2.7,0-4.4-1.7-4.4-5.4V66.7h-2.8V63.4h2.8V57.5l4-2.1v8h4.6v3.3h-4.6V78.6c0,1.9.5,2.5,1.9,2.5l1.3-.2Z" transform="translate(-55.3 -54.7)"/><path class="cls-1" d="M303.1,83.5a7.9,7.9,0,0,1-3.8.9c-2.7,0-4.4-1.7-4.4-5.4V66.7h-2.8V63.4h2.8V57.5l4-2.1v8h4.7v3.3h-4.7V78.6c0,1.9.5,2.5,2,2.5l1.2-.2Z" transform="translate(-55.3 -54.7)"/><path class="cls-1" d="M349.4,58.7a6,6,0,0,1,2.9.8,6,6,0,0,1,3,5.2,5.7,5.7,0,0,1-1.7,4.2,5.8,5.8,0,0,1-4.2,1.8,5.4,5.4,0,0,1-4.2-1.8,5.8,5.8,0,0,1-1.8-4.2,6.1,6.1,0,0,1,.8-3,6.6,6.6,0,0,1,2.2-2.2A6.7,6.7,0,0,1,349.4,58.7Zm0,1a4.2,4.2,0,0,0-2.4.7,4.7,4.7,0,0,0-1.9,1.8,4.5,4.5,0,0,0-.7,2.5,4.7,4.7,0,0,0,1.5,3.5,4.5,4.5,0,0,0,3.5,1.5,4.7,4.7,0,0,0,3.5-1.5,5.1,5.1,0,0,0,0-7A4.9,4.9,0,0,0,349.4,59.7ZM346.8,68V61.6h3.6a1.5,1.5,0,0,1,.9.6,1.3,1.3,0,0,1,.4,1,1.7,1.7,0,0,1-.5,1.2,1.6,1.6,0,0,1-1.3.6c.4.1.9.7,1.5,1.6l.8,1.3h-1.3l-.6-1c-.4-.8-.7-1.3-1-1.4a1.2,1.2,0,0,0-.9-.3h-.6V68Zm1-3.6h1.3c1,0,1.5-.3,1.5-1a.7.7,0,0,0-.4-.7c-.2-.2-.6-.2-1.2-.2h-1.2Z" transform="translate(-55.3 -54.7)"/></svg>